<svg width="129" height="39" viewBox="0 0 129 39" fill="none" xmlns="http://www.w3.org/2000/svg">
<path d="M1.76136 31V7.72727H7.38636V17.5682H7.69318L15.3864 7.72727H22.0114L13.7614 18.1136L22.1591 31H15.4318L9.63636 21.8523L7.38636 24.6932V31H1.76136ZM31.0966 31.3295C29.2633 31.3295 27.6875 30.9545 26.3693 30.2045C25.0587 29.447 24.0473 28.3939 23.3352 27.0455C22.6307 25.6894 22.2784 24.1174 22.2784 22.3295C22.2784 20.5341 22.6307 18.9621 23.3352 17.6136C24.0473 16.2576 25.0587 15.2045 26.3693 14.4545C27.6875 13.697 29.2633 13.3182 31.0966 13.3182C32.9299 13.3182 34.5019 13.697 35.8125 14.4545C37.1307 15.2045 38.142 16.2576 38.8466 17.6136C39.5587 18.9621 39.9148 20.5341 39.9148 22.3295C39.9148 24.1174 39.5587 25.6894 38.8466 27.0455C38.142 28.3939 37.1307 29.447 35.8125 30.2045C34.5019 30.9545 32.9299 31.3295 31.0966 31.3295ZM31.1307 27.1364C31.7973 27.1364 32.3617 26.9318 32.8239 26.5227C33.286 26.1136 33.6383 25.5455 33.8807 24.8182C34.1307 24.0909 34.2557 23.25 34.2557 22.2955C34.2557 21.3258 34.1307 20.4773 33.8807 19.75C33.6383 19.0227 33.286 18.4545 32.8239 18.0455C32.3617 17.6364 31.7973 17.4318 31.1307 17.4318C30.4413 17.4318 29.858 17.6364 29.3807 18.0455C28.911 18.4545 28.5511 19.0227 28.3011 19.75C28.0587 20.4773 27.9375 21.3258 27.9375 22.2955C27.9375 23.25 28.0587 24.0909 28.3011 24.8182C28.5511 25.5455 28.911 26.1136 29.3807 26.5227C29.858 26.9318 30.4413 27.1364 31.1307 27.1364ZM50.8977 37.9091C49.2386 37.9091 47.8182 37.678 46.6364 37.2159C45.4545 36.7538 44.5265 36.1212 43.8523 35.3182C43.178 34.5152 42.7727 33.6061 42.6364 32.5909L47.8977 32.2955C47.9962 32.6515 48.178 32.9621 48.4432 33.2273C48.7159 33.4924 49.0682 33.697 49.5 33.8409C49.9394 33.9848 50.4545 34.0568 51.0455 34.0568C51.9773 34.0568 52.7462 33.8295 53.3523 33.375C53.9659 32.928 54.2727 32.1439 54.2727 31.0227V27.9545H54.0795C53.8598 28.4924 53.5265 28.9735 53.0795 29.3977C52.6326 29.822 52.0758 30.1553 51.4091 30.3977C50.75 30.6402 49.9924 30.7614 49.1364 30.7614C47.8636 30.7614 46.697 30.4659 45.6364 29.875C44.5833 29.2765 43.7386 28.3523 43.1023 27.1023C42.4735 25.8447 42.1591 24.2273 42.1591 22.25C42.1591 20.2121 42.4848 18.5341 43.1364 17.2159C43.7879 15.8902 44.6402 14.9091 45.6932 14.2727C46.7538 13.6364 47.8939 13.3182 49.1136 13.3182C50.0303 13.3182 50.8144 13.4773 51.4659 13.7955C52.125 14.1061 52.6667 14.5076 53.0909 15C53.5152 15.4924 53.8371 16.0038 54.0568 16.5341H54.2159V13.5455H59.75V31.0682C59.75 32.5455 59.3788 33.7917 58.6364 34.8068C57.8939 35.822 56.8561 36.5909 55.5227 37.1136C54.1894 37.6439 52.6477 37.9091 50.8977 37.9091ZM51.0682 26.7159C51.7424 26.7159 52.3182 26.5379 52.7955 26.1818C53.2727 25.8258 53.6402 25.3144 53.8977 24.6477C54.1553 23.9811 54.2841 23.1818 54.2841 22.25C54.2841 21.303 54.1553 20.4886 53.8977 19.8068C53.6477 19.1174 53.2803 18.5871 52.7955 18.2159C52.3182 17.8447 51.7424 17.6591 51.0682 17.6591C50.3788 17.6591 49.7955 17.8485 49.3182 18.2273C48.8409 18.6061 48.4773 19.1402 48.2273 19.8295C47.9848 20.5114 47.8636 21.3182 47.8636 22.25C47.8636 23.1818 47.9886 23.9811 48.2386 24.6477C48.4886 25.3144 48.8485 25.8258 49.3182 26.1818C49.7955 26.5379 50.3788 26.7159 51.0682 26.7159ZM68.8494 21.0455V31H63.2926V13.5455H68.5767V16.75H68.7699C69.1563 15.6818 69.8153 14.8447 70.7472 14.2386C71.679 13.625 72.7888 13.3182 74.0767 13.3182C75.304 13.3182 76.3684 13.5947 77.2699 14.1477C78.179 14.6932 78.8835 15.4583 79.3835 16.4432C79.8911 17.4205 80.1411 18.5644 80.1335 19.875V31H74.5767V20.9659C74.5843 19.9962 74.3381 19.2386 73.8381 18.6932C73.3456 18.1477 72.66 17.875 71.7812 17.875C71.1979 17.875 70.6828 18.0038 70.2358 18.2614C69.7964 18.5114 69.4555 18.8712 69.2131 19.3409C68.9782 19.8106 68.857 20.3788 68.8494 21.0455ZM83.5739 31V13.5455H89.1307V31H83.5739ZM86.358 11.5114C85.5777 11.5114 84.9072 11.2538 84.3466 10.7386C83.786 10.2159 83.5057 9.58712 83.5057 8.85227C83.5057 8.125 83.786 7.50379 84.3466 6.98864C84.9072 6.46591 85.5777 6.20454 86.358 6.20454C87.1458 6.20454 87.8163 6.46591 88.3693 6.98864C88.9299 7.50379 89.2102 8.125 89.2102 8.85227C89.2102 9.58712 88.9299 10.2159 88.3693 10.7386C87.8163 11.2538 87.1458 11.5114 86.358 11.5114ZM92.7131 31V27.8295L100.804 17.9773V17.8636H92.9972V13.5455H107.429V17.0227L99.929 26.5682V26.6818H107.702V31H92.7131ZM118.952 31.3295C117.126 31.3295 115.55 30.9697 114.224 30.25C112.906 29.5227 111.891 28.4886 111.179 27.1477C110.474 25.7992 110.122 24.197 110.122 22.3409C110.122 20.5379 110.478 18.9621 111.19 17.6136C111.902 16.2576 112.906 15.2045 114.202 14.4545C115.497 13.697 117.024 13.3182 118.781 13.3182C120.024 13.3182 121.16 13.5114 122.19 13.8977C123.221 14.2841 124.111 14.8561 124.861 15.6136C125.611 16.3712 126.194 17.3068 126.611 18.4205C127.027 19.5265 127.236 20.7955 127.236 22.2273V23.6136H112.065V20.3864H122.065C122.058 19.7955 121.918 19.2689 121.645 18.8068C121.372 18.3447 120.997 17.9848 120.52 17.7273C120.05 17.4621 119.509 17.3295 118.895 17.3295C118.274 17.3295 117.717 17.4697 117.224 17.75C116.732 18.0227 116.342 18.3977 116.054 18.875C115.766 19.3447 115.615 19.8788 115.599 20.4773V23.7614C115.599 24.4735 115.74 25.0985 116.02 25.6364C116.3 26.1667 116.698 26.5795 117.213 26.875C117.728 27.1705 118.342 27.3182 119.054 27.3182C119.546 27.3182 119.993 27.25 120.395 27.1136C120.796 26.9773 121.141 26.7765 121.429 26.5114C121.717 26.2462 121.933 25.9205 122.077 25.5341L127.179 25.6818C126.967 26.8258 126.501 27.822 125.781 28.6705C125.069 29.5114 124.134 30.1667 122.974 30.6364C121.815 31.0985 120.474 31.3295 118.952 31.3295Z" fill="black"/>
<circle cx="86.35" cy="8.85" r="2.85" fill="#10B981"/>
</svg>
