<svg width="119" height="33" viewBox="0 0 119 33" fill="none" xmlns="http://www.w3.org/2000/svg">
<mask id="path-1-outside-1_1_17" maskUnits="userSpaceOnUse" x="0.818176" y="0" width="118" height="33" fill="black">
<rect fill="white" x="0.818176" width="118" height="33"/>
<path d="M1.81818 25V1.72727H4.63636V13.2727H4.90909L15.3636 1.72727H19.0455L9.27272 12.2273L19.0455 25H15.6364L7.54545 14.1818L4.63636 17.4545V25H1.81818Z"/>
<path d="M28.1392 25.3636C26.5634 25.3636 25.1809 24.9886 23.9915 24.2386C22.8097 23.4886 21.8854 22.4394 21.2187 21.0909C20.5597 19.7424 20.2301 18.1667 20.2301 16.3636C20.2301 14.5455 20.5597 12.9583 21.2187 11.6023C21.8854 10.2462 22.8097 9.19318 23.9915 8.44318C25.1809 7.69318 26.5634 7.31818 28.1392 7.31818C29.715 7.31818 31.0937 7.69318 32.2756 8.44318C33.465 9.19318 34.3892 10.2462 35.0483 11.6023C35.715 12.9583 36.0483 14.5455 36.0483 16.3636C36.0483 18.1667 35.715 19.7424 35.0483 21.0909C34.3892 22.4394 33.465 23.4886 32.2756 24.2386C31.0937 24.9886 29.715 25.3636 28.1392 25.3636ZM28.1392 22.9545C29.3362 22.9545 30.321 22.6477 31.0937 22.0341C31.8665 21.4205 32.4384 20.6136 32.8097 19.6136C33.1809 18.6136 33.3665 17.5303 33.3665 16.3636C33.3665 15.197 33.1809 14.1098 32.8097 13.1023C32.4384 12.0947 31.8665 11.2803 31.0937 10.6591C30.321 10.0379 29.3362 9.72727 28.1392 9.72727C26.9422 9.72727 25.9574 10.0379 25.1847 10.6591C24.4119 11.2803 23.84 12.0947 23.4687 13.1023C23.0975 14.1098 22.9119 15.197 22.9119 16.3636C22.9119 17.5303 23.0975 18.6136 23.4687 19.6136C23.84 20.6136 24.4119 21.4205 25.1847 22.0341C25.9574 22.6477 26.9422 22.9545 28.1392 22.9545Z"/>
<path d="M47.1875 31.9091C45.892 31.9091 44.7784 31.7424 43.8466 31.4091C42.9148 31.0833 42.1383 30.6515 41.517 30.1136C40.9034 29.5833 40.4148 29.0152 40.0511 28.4091L42.1875 26.9091C42.4299 27.2273 42.7367 27.5909 43.1079 28C43.4792 28.4167 43.9867 28.7765 44.6307 29.0795C45.2822 29.3902 46.1345 29.5455 47.1875 29.5455C48.5966 29.5455 49.7595 29.2045 50.6761 28.5227C51.5928 27.8409 52.0511 26.7727 52.0511 25.3182V21.7727H51.8239C51.6269 22.0909 51.3466 22.4848 50.9829 22.9545C50.6269 23.4167 50.1117 23.8295 49.4375 24.1932C48.7708 24.5492 47.8693 24.7273 46.7329 24.7273C45.3239 24.7273 44.0587 24.3939 42.9375 23.7273C41.8239 23.0606 40.9413 22.0909 40.2898 20.8182C39.6458 19.5455 39.3239 18 39.3239 16.1818C39.3239 14.3939 39.6383 12.8371 40.267 11.5114C40.8958 10.178 41.7708 9.14773 42.892 8.42045C44.0133 7.68561 45.3087 7.31818 46.7784 7.31818C47.9148 7.31818 48.8163 7.50758 49.4829 7.88636C50.1572 8.25758 50.6723 8.68182 51.0284 9.15909C51.392 9.62879 51.6723 10.0152 51.8693 10.3182H52.142V7.54545H54.7329V25.5C54.7329 27 54.392 28.2197 53.7102 29.1591C53.036 30.1061 52.1269 30.7992 50.9829 31.2386C49.8466 31.6856 48.5814 31.9091 47.1875 31.9091ZM47.0966 22.3182C48.1723 22.3182 49.0814 22.072 49.8239 21.5795C50.5663 21.0871 51.1307 20.3788 51.517 19.4545C51.9034 18.5303 52.0966 17.4242 52.0966 16.1364C52.0966 14.8788 51.9072 13.7689 51.5284 12.8068C51.1496 11.8447 50.589 11.0909 49.8466 10.5455C49.1042 10 48.1875 9.72727 47.0966 9.72727C45.9602 9.72727 45.0133 10.0152 44.2557 10.5909C43.5057 11.1667 42.9413 11.9394 42.5625 12.9091C42.1913 13.8788 42.0057 14.9545 42.0057 16.1364C42.0057 17.3485 42.1951 18.4205 42.5739 19.3523C42.9602 20.2765 43.5284 21.0038 44.2784 21.5341C45.036 22.0568 45.9754 22.3182 47.0966 22.3182Z"/>
<path d="M62.3239 14.5V25H59.642V7.54545H62.2329V10.2727H62.4602C62.8693 9.38636 63.4905 8.67424 64.3239 8.13636C65.1572 7.59091 66.233 7.31818 67.5511 7.31818C68.733 7.31818 69.767 7.56061 70.6534 8.04545C71.5398 8.52273 72.2292 9.25 72.7216 10.2273C73.214 11.197 73.4602 12.4242 73.4602 13.9091V25H70.7784V14.0909C70.7784 12.7197 70.4223 11.6515 69.7102 10.8864C68.9981 10.1136 68.0208 9.72727 66.7784 9.72727C65.9223 9.72727 65.1572 9.91288 64.4829 10.2841C63.8163 10.6553 63.2898 11.197 62.9034 11.9091C62.517 12.6212 62.3239 13.4848 62.3239 14.5Z"/>
<path d="M78.3608 25V7.54545H81.0426V25H78.3608ZM79.7244 4.63636C79.2017 4.63636 78.7509 4.45833 78.3722 4.10227C78.0009 3.74621 77.8153 3.31818 77.8153 2.81818C77.8153 2.31818 78.0009 1.89015 78.3722 1.53409C78.7509 1.17803 79.2017 1 79.7244 1C80.2472 1 80.6941 1.17803 81.0653 1.53409C81.4441 1.89015 81.6335 2.31818 81.6335 2.81818C81.6335 3.31818 81.4441 3.74621 81.0653 4.10227C80.6941 4.45833 80.2472 4.63636 79.7244 4.63636Z"/>
<path d="M85.4545 25V22.9545L95.3636 10.2273V10.0455H85.7727V7.54545H98.8182V9.68182L89.1818 22.3182V22.5H99.1364V25H85.4545Z"/>
<path d="M110.085 25.3636C108.403 25.3636 106.953 24.9924 105.733 24.25C104.521 23.5 103.585 22.4545 102.926 21.1136C102.275 19.7652 101.949 18.197 101.949 16.4091C101.949 14.6212 102.275 13.0455 102.926 11.6818C103.585 10.3106 104.502 9.24242 105.676 8.47727C106.858 7.70455 108.237 7.31818 109.812 7.31818C110.722 7.31818 111.619 7.4697 112.506 7.77273C113.392 8.07576 114.199 8.56818 114.926 9.25C115.653 9.92424 116.233 10.8182 116.665 11.9318C117.097 13.0455 117.312 14.4167 117.312 16.0455V17.1818H103.858V14.8636H114.585C114.585 13.8788 114.388 13 113.994 12.2273C113.608 11.4545 113.055 10.8447 112.335 10.3977C111.623 9.95076 110.782 9.72727 109.812 9.72727C108.744 9.72727 107.82 9.99242 107.04 10.5227C106.267 11.0455 105.672 11.7273 105.256 12.5682C104.839 13.4091 104.631 14.3106 104.631 15.2727V16.8182C104.631 18.1364 104.858 19.2538 105.312 20.1705C105.775 21.0795 106.415 21.7727 107.233 22.25C108.051 22.7197 109.002 22.9545 110.085 22.9545C110.79 22.9545 111.426 22.8561 111.994 22.6591C112.57 22.4545 113.066 22.1515 113.483 21.75C113.9 21.3409 114.222 20.8333 114.449 20.2273L117.04 20.9545C116.767 21.8333 116.309 22.6061 115.665 23.2727C115.021 23.9318 114.225 24.447 113.278 24.8182C112.331 25.1818 111.267 25.3636 110.085 25.3636Z"/>
</mask>
<path d="M1.81818 25V1.72727H4.63636V13.2727H4.90909L15.3636 1.72727H19.0455L9.27272 12.2273L19.0455 25H15.6364L7.54545 14.1818L4.63636 17.4545V25H1.81818Z" fill="black"/>
<path d="M28.1392 25.3636C26.5634 25.3636 25.1809 24.9886 23.9915 24.2386C22.8097 23.4886 21.8854 22.4394 21.2187 21.0909C20.5597 19.7424 20.2301 18.1667 20.2301 16.3636C20.2301 14.5455 20.5597 12.9583 21.2187 11.6023C21.8854 10.2462 22.8097 9.19318 23.9915 8.44318C25.1809 7.69318 26.5634 7.31818 28.1392 7.31818C29.715 7.31818 31.0937 7.69318 32.2756 8.44318C33.465 9.19318 34.3892 10.2462 35.0483 11.6023C35.715 12.9583 36.0483 14.5455 36.0483 16.3636C36.0483 18.1667 35.715 19.7424 35.0483 21.0909C34.3892 22.4394 33.465 23.4886 32.2756 24.2386C31.0937 24.9886 29.715 25.3636 28.1392 25.3636ZM28.1392 22.9545C29.3362 22.9545 30.321 22.6477 31.0937 22.0341C31.8665 21.4205 32.4384 20.6136 32.8097 19.6136C33.1809 18.6136 33.3665 17.5303 33.3665 16.3636C33.3665 15.197 33.1809 14.1098 32.8097 13.1023C32.4384 12.0947 31.8665 11.2803 31.0937 10.6591C30.321 10.0379 29.3362 9.72727 28.1392 9.72727C26.9422 9.72727 25.9574 10.0379 25.1847 10.6591C24.4119 11.2803 23.84 12.0947 23.4687 13.1023C23.0975 14.1098 22.9119 15.197 22.9119 16.3636C22.9119 17.5303 23.0975 18.6136 23.4687 19.6136C23.84 20.6136 24.4119 21.4205 25.1847 22.0341C25.9574 22.6477 26.9422 22.9545 28.1392 22.9545Z" fill="black"/>
<path d="M47.1875 31.9091C45.892 31.9091 44.7784 31.7424 43.8466 31.4091C42.9148 31.0833 42.1383 30.6515 41.517 30.1136C40.9034 29.5833 40.4148 29.0152 40.0511 28.4091L42.1875 26.9091C42.4299 27.2273 42.7367 27.5909 43.1079 28C43.4792 28.4167 43.9867 28.7765 44.6307 29.0795C45.2822 29.3902 46.1345 29.5455 47.1875 29.5455C48.5966 29.5455 49.7595 29.2045 50.6761 28.5227C51.5928 27.8409 52.0511 26.7727 52.0511 25.3182V21.7727H51.8239C51.6269 22.0909 51.3466 22.4848 50.9829 22.9545C50.6269 23.4167 50.1117 23.8295 49.4375 24.1932C48.7708 24.5492 47.8693 24.7273 46.7329 24.7273C45.3239 24.7273 44.0587 24.3939 42.9375 23.7273C41.8239 23.0606 40.9413 22.0909 40.2898 20.8182C39.6458 19.5455 39.3239 18 39.3239 16.1818C39.3239 14.3939 39.6383 12.8371 40.267 11.5114C40.8958 10.178 41.7708 9.14773 42.892 8.42045C44.0133 7.68561 45.3087 7.31818 46.7784 7.31818C47.9148 7.31818 48.8163 7.50758 49.4829 7.88636C50.1572 8.25758 50.6723 8.68182 51.0284 9.15909C51.392 9.62879 51.6723 10.0152 51.8693 10.3182H52.142V7.54545H54.7329V25.5C54.7329 27 54.392 28.2197 53.7102 29.1591C53.036 30.1061 52.1269 30.7992 50.9829 31.2386C49.8466 31.6856 48.5814 31.9091 47.1875 31.9091ZM47.0966 22.3182C48.1723 22.3182 49.0814 22.072 49.8239 21.5795C50.5663 21.0871 51.1307 20.3788 51.517 19.4545C51.9034 18.5303 52.0966 17.4242 52.0966 16.1364C52.0966 14.8788 51.9072 13.7689 51.5284 12.8068C51.1496 11.8447 50.589 11.0909 49.8466 10.5455C49.1042 10 48.1875 9.72727 47.0966 9.72727C45.9602 9.72727 45.0133 10.0152 44.2557 10.5909C43.5057 11.1667 42.9413 11.9394 42.5625 12.9091C42.1913 13.8788 42.0057 14.9545 42.0057 16.1364C42.0057 17.3485 42.1951 18.4205 42.5739 19.3523C42.9602 20.2765 43.5284 21.0038 44.2784 21.5341C45.036 22.0568 45.9754 22.3182 47.0966 22.3182Z" fill="black"/>
<path d="M62.3239 14.5V25H59.642V7.54545H62.2329V10.2727H62.4602C62.8693 9.38636 63.4905 8.67424 64.3239 8.13636C65.1572 7.59091 66.233 7.31818 67.5511 7.31818C68.733 7.31818 69.767 7.56061 70.6534 8.04545C71.5398 8.52273 72.2292 9.25 72.7216 10.2273C73.214 11.197 73.4602 12.4242 73.4602 13.9091V25H70.7784V14.0909C70.7784 12.7197 70.4223 11.6515 69.7102 10.8864C68.9981 10.1136 68.0208 9.72727 66.7784 9.72727C65.9223 9.72727 65.1572 9.91288 64.4829 10.2841C63.8163 10.6553 63.2898 11.197 62.9034 11.9091C62.517 12.6212 62.3239 13.4848 62.3239 14.5Z" fill="black"/>
<path d="M78.3608 25V7.54545H81.0426V25H78.3608ZM79.7244 4.63636C79.2017 4.63636 78.7509 4.45833 78.3722 4.10227C78.0009 3.74621 77.8153 3.31818 77.8153 2.81818C77.8153 2.31818 78.0009 1.89015 78.3722 1.53409C78.7509 1.17803 79.2017 1 79.7244 1C80.2472 1 80.6941 1.17803 81.0653 1.53409C81.4441 1.89015 81.6335 2.31818 81.6335 2.81818C81.6335 3.31818 81.4441 3.74621 81.0653 4.10227C80.6941 4.45833 80.2472 4.63636 79.7244 4.63636Z" fill="black"/>
<path d="M85.4545 25V22.9545L95.3636 10.2273V10.0455H85.7727V7.54545H98.8182V9.68182L89.1818 22.3182V22.5H99.1364V25H85.4545Z" fill="black"/>
<path d="M110.085 25.3636C108.403 25.3636 106.953 24.9924 105.733 24.25C104.521 23.5 103.585 22.4545 102.926 21.1136C102.275 19.7652 101.949 18.197 101.949 16.4091C101.949 14.6212 102.275 13.0455 102.926 11.6818C103.585 10.3106 104.502 9.24242 105.676 8.47727C106.858 7.70455 108.237 7.31818 109.812 7.31818C110.722 7.31818 111.619 7.4697 112.506 7.77273C113.392 8.07576 114.199 8.56818 114.926 9.25C115.653 9.92424 116.233 10.8182 116.665 11.9318C117.097 13.0455 117.312 14.4167 117.312 16.0455V17.1818H103.858V14.8636H114.585C114.585 13.8788 114.388 13 113.994 12.2273C113.608 11.4545 113.055 10.8447 112.335 10.3977C111.623 9.95076 110.782 9.72727 109.812 9.72727C108.744 9.72727 107.82 9.99242 107.04 10.5227C106.267 11.0455 105.672 11.7273 105.256 12.5682C104.839 13.4091 104.631 14.3106 104.631 15.2727V16.8182C104.631 18.1364 104.858 19.2538 105.312 20.1705C105.775 21.0795 106.415 21.7727 107.233 22.25C108.051 22.7197 109.002 22.9545 110.085 22.9545C110.79 22.9545 111.426 22.8561 111.994 22.6591C112.57 22.4545 113.066 22.1515 113.483 21.75C113.9 21.3409 114.222 20.8333 114.449 20.2273L117.04 20.9545C116.767 21.8333 116.309 22.6061 115.665 23.2727C115.021 23.9318 114.225 24.447 113.278 24.8182C112.331 25.1818 111.267 25.3636 110.085 25.3636Z" fill="black"/>
<path d="M1.81818 25V1.72727H4.63636V13.2727H4.90909L15.3636 1.72727H19.0455L9.27272 12.2273L19.0455 25H15.6364L7.54545 14.1818L4.63636 17.4545V25H1.81818Z" stroke="black" stroke-width="2" mask="url(#path-1-outside-1_1_17)"/>
<path d="M28.1392 25.3636C26.5634 25.3636 25.1809 24.9886 23.9915 24.2386C22.8097 23.4886 21.8854 22.4394 21.2187 21.0909C20.5597 19.7424 20.2301 18.1667 20.2301 16.3636C20.2301 14.5455 20.5597 12.9583 21.2187 11.6023C21.8854 10.2462 22.8097 9.19318 23.9915 8.44318C25.1809 7.69318 26.5634 7.31818 28.1392 7.31818C29.715 7.31818 31.0937 7.69318 32.2756 8.44318C33.465 9.19318 34.3892 10.2462 35.0483 11.6023C35.715 12.9583 36.0483 14.5455 36.0483 16.3636C36.0483 18.1667 35.715 19.7424 35.0483 21.0909C34.3892 22.4394 33.465 23.4886 32.2756 24.2386C31.0937 24.9886 29.715 25.3636 28.1392 25.3636ZM28.1392 22.9545C29.3362 22.9545 30.321 22.6477 31.0937 22.0341C31.8665 21.4205 32.4384 20.6136 32.8097 19.6136C33.1809 18.6136 33.3665 17.5303 33.3665 16.3636C33.3665 15.197 33.1809 14.1098 32.8097 13.1023C32.4384 12.0947 31.8665 11.2803 31.0937 10.6591C30.321 10.0379 29.3362 9.72727 28.1392 9.72727C26.9422 9.72727 25.9574 10.0379 25.1847 10.6591C24.4119 11.2803 23.84 12.0947 23.4687 13.1023C23.0975 14.1098 22.9119 15.197 22.9119 16.3636C22.9119 17.5303 23.0975 18.6136 23.4687 19.6136C23.84 20.6136 24.4119 21.4205 25.1847 22.0341C25.9574 22.6477 26.9422 22.9545 28.1392 22.9545Z" stroke="black" stroke-width="2" mask="url(#path-1-outside-1_1_17)"/>
<path d="M47.1875 31.9091C45.892 31.9091 44.7784 31.7424 43.8466 31.4091C42.9148 31.0833 42.1383 30.6515 41.517 30.1136C40.9034 29.5833 40.4148 29.0152 40.0511 28.4091L42.1875 26.9091C42.4299 27.2273 42.7367 27.5909 43.1079 28C43.4792 28.4167 43.9867 28.7765 44.6307 29.0795C45.2822 29.3902 46.1345 29.5455 47.1875 29.5455C48.5966 29.5455 49.7595 29.2045 50.6761 28.5227C51.5928 27.8409 52.0511 26.7727 52.0511 25.3182V21.7727H51.8239C51.6269 22.0909 51.3466 22.4848 50.9829 22.9545C50.6269 23.4167 50.1117 23.8295 49.4375 24.1932C48.7708 24.5492 47.8693 24.7273 46.7329 24.7273C45.3239 24.7273 44.0587 24.3939 42.9375 23.7273C41.8239 23.0606 40.9413 22.0909 40.2898 20.8182C39.6458 19.5455 39.3239 18 39.3239 16.1818C39.3239 14.3939 39.6383 12.8371 40.267 11.5114C40.8958 10.178 41.7708 9.14773 42.892 8.42045C44.0133 7.68561 45.3087 7.31818 46.7784 7.31818C47.9148 7.31818 48.8163 7.50758 49.4829 7.88636C50.1572 8.25758 50.6723 8.68182 51.0284 9.15909C51.392 9.62879 51.6723 10.0152 51.8693 10.3182H52.142V7.54545H54.7329V25.5C54.7329 27 54.392 28.2197 53.7102 29.1591C53.036 30.1061 52.1269 30.7992 50.9829 31.2386C49.8466 31.6856 48.5814 31.9091 47.1875 31.9091ZM47.0966 22.3182C48.1723 22.3182 49.0814 22.072 49.8239 21.5795C50.5663 21.0871 51.1307 20.3788 51.517 19.4545C51.9034 18.5303 52.0966 17.4242 52.0966 16.1364C52.0966 14.8788 51.9072 13.7689 51.5284 12.8068C51.1496 11.8447 50.589 11.0909 49.8466 10.5455C49.1042 10 48.1875 9.72727 47.0966 9.72727C45.9602 9.72727 45.0133 10.0152 44.2557 10.5909C43.5057 11.1667 42.9413 11.9394 42.5625 12.9091C42.1913 13.8788 42.0057 14.9545 42.0057 16.1364C42.0057 17.3485 42.1951 18.4205 42.5739 19.3523C42.9602 20.2765 43.5284 21.0038 44.2784 21.5341C45.036 22.0568 45.9754 22.3182 47.0966 22.3182Z" stroke="black" stroke-width="2" mask="url(#path-1-outside-1_1_17)"/>
<path d="M62.3239 14.5V25H59.642V7.54545H62.2329V10.2727H62.4602C62.8693 9.38636 63.4905 8.67424 64.3239 8.13636C65.1572 7.59091 66.233 7.31818 67.5511 7.31818C68.733 7.31818 69.767 7.56061 70.6534 8.04545C71.5398 8.52273 72.2292 9.25 72.7216 10.2273C73.214 11.197 73.4602 12.4242 73.4602 13.9091V25H70.7784V14.0909C70.7784 12.7197 70.4223 11.6515 69.7102 10.8864C68.9981 10.1136 68.0208 9.72727 66.7784 9.72727C65.9223 9.72727 65.1572 9.91288 64.4829 10.2841C63.8163 10.6553 63.2898 11.197 62.9034 11.9091C62.517 12.6212 62.3239 13.4848 62.3239 14.5Z" stroke="black" stroke-width="2" mask="url(#path-1-outside-1_1_17)"/>
<path d="M78.3608 25V7.54545H81.0426V25H78.3608ZM79.7244 4.63636C79.2017 4.63636 78.7509 4.45833 78.3722 4.10227C78.0009 3.74621 77.8153 3.31818 77.8153 2.81818C77.8153 2.31818 78.0009 1.89015 78.3722 1.53409C78.7509 1.17803 79.2017 1 79.7244 1C80.2472 1 80.6941 1.17803 81.0653 1.53409C81.4441 1.89015 81.6335 2.31818 81.6335 2.81818C81.6335 3.31818 81.4441 3.74621 81.0653 4.10227C80.6941 4.45833 80.2472 4.63636 79.7244 4.63636Z" stroke="black" stroke-width="2" mask="url(#path-1-outside-1_1_17)"/>
<path d="M85.4545 25V22.9545L95.3636 10.2273V10.0455H85.7727V7.54545H98.8182V9.68182L89.1818 22.3182V22.5H99.1364V25H85.4545Z" stroke="black" stroke-width="2" mask="url(#path-1-outside-1_1_17)"/>
<path d="M110.085 25.3636C108.403 25.3636 106.953 24.9924 105.733 24.25C104.521 23.5 103.585 22.4545 102.926 21.1136C102.275 19.7652 101.949 18.197 101.949 16.4091C101.949 14.6212 102.275 13.0455 102.926 11.6818C103.585 10.3106 104.502 9.24242 105.676 8.47727C106.858 7.70455 108.237 7.31818 109.812 7.31818C110.722 7.31818 111.619 7.4697 112.506 7.77273C113.392 8.07576 114.199 8.56818 114.926 9.25C115.653 9.92424 116.233 10.8182 116.665 11.9318C117.097 13.0455 117.312 14.4167 117.312 16.0455V17.1818H103.858V14.8636H114.585C114.585 13.8788 114.388 13 113.994 12.2273C113.608 11.4545 113.055 10.8447 112.335 10.3977C111.623 9.95076 110.782 9.72727 109.812 9.72727C108.744 9.72727 107.82 9.99242 107.04 10.5227C106.267 11.0455 105.672 11.7273 105.256 12.5682C104.839 13.4091 104.631 14.3106 104.631 15.2727V16.8182C104.631 18.1364 104.858 19.2538 105.312 20.1705C105.775 21.0795 106.415 21.7727 107.233 22.25C108.051 22.7197 109.002 22.9545 110.085 22.9545C110.79 22.9545 111.426 22.8561 111.994 22.6591C112.57 22.4545 113.066 22.1515 113.483 21.75C113.9 21.3409 114.222 20.8333 114.449 20.2273L117.04 20.9545C116.767 21.8333 116.309 22.6061 115.665 23.2727C115.021 23.9318 114.225 24.447 113.278 24.8182C112.331 25.1818 111.267 25.3636 110.085 25.3636Z" stroke="black" stroke-width="2" mask="url(#path-1-outside-1_1_17)"/>
<circle cx="79.7" cy="3" r="3" fill="#10B981"/>
</svg>
