<svg width="117" height="32" viewBox="0 0 117 32" fill="none" xmlns="http://www.w3.org/2000/svg">
<path d="M0.818176 25V1.72727H3.63636V13.2727H3.90909L14.3636 1.72727H18.0455L8.27272 12.2273L18.0455 25H14.6364L6.54545 14.1818L3.63636 17.4545V25H0.818176Z" fill="black"/>
<path d="M27.1392 25.3636C25.5634 25.3636 24.1809 24.9886 22.9915 24.2386C21.8097 23.4886 20.8854 22.4394 20.2187 21.0909C19.5597 19.7424 19.2301 18.1667 19.2301 16.3636C19.2301 14.5455 19.5597 12.9583 20.2187 11.6023C20.8854 10.2462 21.8097 9.19318 22.9915 8.44318C24.1809 7.69318 25.5634 7.31818 27.1392 7.31818C28.715 7.31818 30.0937 7.69318 31.2756 8.44318C32.465 9.19318 33.3892 10.2462 34.0483 11.6023C34.715 12.9583 35.0483 14.5455 35.0483 16.3636C35.0483 18.1667 34.715 19.7424 34.0483 21.0909C33.3892 22.4394 32.465 23.4886 31.2756 24.2386C30.0937 24.9886 28.715 25.3636 27.1392 25.3636ZM27.1392 22.9545C28.3362 22.9545 29.321 22.6477 30.0937 22.0341C30.8665 21.4205 31.4384 20.6136 31.8097 19.6136C32.1809 18.6136 32.3665 17.5303 32.3665 16.3636C32.3665 15.197 32.1809 14.1098 31.8097 13.1023C31.4384 12.0947 30.8665 11.2803 30.0937 10.6591C29.321 10.0379 28.3362 9.72727 27.1392 9.72727C25.9422 9.72727 24.9574 10.0379 24.1847 10.6591C23.4119 11.2803 22.84 12.0947 22.4687 13.1023C22.0975 14.1098 21.9119 15.197 21.9119 16.3636C21.9119 17.5303 22.0975 18.6136 22.4687 19.6136C22.84 20.6136 23.4119 21.4205 24.1847 22.0341C24.9574 22.6477 25.9422 22.9545 27.1392 22.9545Z" fill="black"/>
<path d="M46.1875 31.9091C44.892 31.9091 43.7784 31.7424 42.8466 31.4091C41.9148 31.0833 41.1383 30.6515 40.517 30.1136C39.9034 29.5833 39.4148 29.0152 39.0511 28.4091L41.1875 26.9091C41.4299 27.2273 41.7367 27.5909 42.1079 28C42.4792 28.4167 42.9867 28.7765 43.6307 29.0795C44.2822 29.3902 45.1345 29.5455 46.1875 29.5455C47.5966 29.5455 48.7595 29.2045 49.6761 28.5227C50.5928 27.8409 51.0511 26.7727 51.0511 25.3182V21.7727H50.8239C50.6269 22.0909 50.3466 22.4848 49.9829 22.9545C49.6269 23.4167 49.1117 23.8295 48.4375 24.1932C47.7708 24.5492 46.8693 24.7273 45.7329 24.7273C44.3239 24.7273 43.0587 24.3939 41.9375 23.7273C40.8239 23.0606 39.9413 22.0909 39.2898 20.8182C38.6458 19.5455 38.3239 18 38.3239 16.1818C38.3239 14.3939 38.6383 12.8371 39.267 11.5114C39.8958 10.178 40.7708 9.14773 41.892 8.42045C43.0133 7.68561 44.3087 7.31818 45.7784 7.31818C46.9148 7.31818 47.8163 7.50758 48.4829 7.88636C49.1572 8.25758 49.6723 8.68182 50.0284 9.15909C50.392 9.62879 50.6723 10.0152 50.8693 10.3182H51.142V7.54545H53.7329V25.5C53.7329 27 53.392 28.2197 52.7102 29.1591C52.036 30.1061 51.1269 30.7992 49.9829 31.2386C48.8466 31.6856 47.5814 31.9091 46.1875 31.9091ZM46.0966 22.3182C47.1723 22.3182 48.0814 22.072 48.8239 21.5795C49.5663 21.0871 50.1307 20.3788 50.517 19.4545C50.9034 18.5303 51.0966 17.4242 51.0966 16.1364C51.0966 14.8788 50.9072 13.7689 50.5284 12.8068C50.1496 11.8447 49.589 11.0909 48.8466 10.5455C48.1042 10 47.1875 9.72727 46.0966 9.72727C44.9602 9.72727 44.0133 10.0152 43.2557 10.5909C42.5057 11.1667 41.9413 11.9394 41.5625 12.9091C41.1913 13.8788 41.0057 14.9545 41.0057 16.1364C41.0057 17.3485 41.1951 18.4205 41.5739 19.3523C41.9602 20.2765 42.5284 21.0038 43.2784 21.5341C44.036 22.0568 44.9754 22.3182 46.0966 22.3182Z" fill="black"/>
<path d="M61.3239 14.5V25H58.642V7.54545H61.2329V10.2727H61.4602C61.8693 9.38636 62.4905 8.67424 63.3239 8.13636C64.1572 7.59091 65.233 7.31818 66.5511 7.31818C67.733 7.31818 68.767 7.56061 69.6534 8.04545C70.5398 8.52273 71.2292 9.25 71.7216 10.2273C72.214 11.197 72.4602 12.4242 72.4602 13.9091V25H69.7784V14.0909C69.7784 12.7197 69.4223 11.6515 68.7102 10.8864C67.9981 10.1136 67.0208 9.72727 65.7784 9.72727C64.9223 9.72727 64.1572 9.91288 63.4829 10.2841C62.8163 10.6553 62.2898 11.197 61.9034 11.9091C61.517 12.6212 61.3239 13.4848 61.3239 14.5Z" fill="black"/>
<path d="M77.3608 25V7.54545H80.0426V25H77.3608ZM78.7244 4.63636C78.2017 4.63636 77.7509 4.45833 77.3722 4.10227C77.0009 3.74621 76.8153 3.31818 76.8153 2.81818C76.8153 2.31818 77.0009 1.89015 77.3722 1.53409C77.7509 1.17803 78.2017 1 78.7244 1C79.2472 1 79.6941 1.17803 80.0653 1.53409C80.4441 1.89015 80.6335 2.31818 80.6335 2.81818C80.6335 3.31818 80.4441 3.74621 80.0653 4.10227C79.6941 4.45833 79.2472 4.63636 78.7244 4.63636Z" fill="black"/>
<path d="M84.4545 25V22.9545L94.3636 10.2273V10.0455H84.7727V7.54545H97.8182V9.68182L88.1818 22.3182V22.5H98.1364V25H84.4545Z" fill="black"/>
<path d="M109.085 25.3636C107.403 25.3636 105.953 24.9924 104.733 24.25C103.521 23.5 102.585 22.4545 101.926 21.1136C101.275 19.7652 100.949 18.197 100.949 16.4091C100.949 14.6212 101.275 13.0455 101.926 11.6818C102.585 10.3106 103.502 9.24242 104.676 8.47727C105.858 7.70455 107.237 7.31818 108.812 7.31818C109.722 7.31818 110.619 7.4697 111.506 7.77273C112.392 8.07576 113.199 8.56818 113.926 9.25C114.653 9.92424 115.233 10.8182 115.665 11.9318C116.097 13.0455 116.312 14.4167 116.312 16.0455V17.1818H102.858V14.8636H113.585C113.585 13.8788 113.388 13 112.994 12.2273C112.608 11.4545 112.055 10.8447 111.335 10.3977C110.623 9.95076 109.782 9.72727 108.812 9.72727C107.744 9.72727 106.82 9.99242 106.04 10.5227C105.267 11.0455 104.672 11.7273 104.256 12.5682C103.839 13.4091 103.631 14.3106 103.631 15.2727V16.8182C103.631 18.1364 103.858 19.2538 104.312 20.1705C104.775 21.0795 105.415 21.7727 106.233 22.25C107.051 22.7197 108.002 22.9545 109.085 22.9545C109.79 22.9545 110.426 22.8561 110.994 22.6591C111.57 22.4545 112.066 22.1515 112.483 21.75C112.9 21.3409 113.222 20.8333 113.449 20.2273L116.04 20.9545C115.767 21.8333 115.309 22.6061 114.665 23.2727C114.021 23.9318 113.225 24.447 112.278 24.8182C111.331 25.1818 110.267 25.3636 109.085 25.3636Z" fill="black"/>
<circle cx="78.5" cy="2.5" r="2.5" fill="#10B981"/>
</svg>
